<svg width="199" height="35" viewBox="0 0 199 35" fill="none" xmlns="http://www.w3.org/2000/svg">
<path fill-rule="evenodd" clip-rule="evenodd" d="M13.6754 0.0278752C15.6094 0.270325 16.98 2.0294 16.7367 3.95688L15.9671 10.0546C17.9983 10.4531 19.9782 11.0852 21.7914 12.1096C27.5335 15.3535 30.1757 21.6159 30.1757 31.4821C30.1757 33.4248 28.5956 34.9996 26.6464 34.9996C24.6972 34.9996 23.1171 33.4248 23.1171 31.4821C23.1171 22.7055 20.8183 19.6464 18.3106 18.2297C17.4203 17.7267 16.3566 17.3421 15.0833 17.0578L13.2074 31.9211C12.9641 33.8486 11.1991 35.2146 9.26518 34.9721C7.33123 34.7297 5.96065 32.9706 6.20392 31.0431L8.05351 16.3881C6.64081 16.3577 5.13712 16.3568 3.52933 16.3568C1.58013 16.3568 0 14.782 0 12.8393C0 10.8966 1.58013 9.32178 3.52933 9.32178L3.64314 9.32178C5.41658 9.32175 7.19912 9.32173 8.93882 9.37341L9.73324 3.07889C9.97651 1.15141 11.7415 -0.214575 13.6754 0.0278752ZM31.2635 9.47487C33.1278 8.90799 35.1003 9.95474 35.6691 11.8129L38.8455 22.1895C39.4142 24.0476 38.364 26.0135 36.4996 26.5804C34.6353 27.1473 32.6628 26.1005 32.094 24.2424L28.9176 13.8657C28.3488 12.0076 29.3991 10.0418 31.2635 9.47487Z" fill="#EDCA70"/>
<path d="M50 31.4486C50 31.1507 50.0164 30.8293 50.0492 30.4844C50.082 30.1317 50.1148 29.7829 50.1476 29.438C50.1886 29.0852 50.2255 28.7482 50.2583 28.4268C50.2911 28.0976 50.3075 27.8036 50.3075 27.545L50.5043 15.8107C50.5043 15.6383 50.5412 15.4854 50.615 15.3521C50.6888 15.2189 50.7832 15.1092 50.898 15.0229C51.0128 14.9289 51.1399 14.8583 51.2793 14.8113C51.4187 14.7643 51.5622 14.7407 51.7098 14.7407C51.8164 14.7407 51.9353 14.7643 52.0665 14.8113C52.1977 14.8505 52.3208 14.9171 52.4356 15.0112C52.5504 15.0974 52.6447 15.2111 52.7185 15.3521C52.7923 15.4932 52.8292 15.6618 52.8292 15.8577C52.8292 16.4456 52.8128 17.0257 52.78 17.5979C52.7554 18.1701 52.7226 18.7384 52.6816 19.3028C52.6488 19.8593 52.616 20.4119 52.5832 20.9606C52.5586 21.5093 52.5463 22.0541 52.5463 22.5949C52.5463 23.0496 52.5463 23.5042 52.5463 23.9588C52.5545 24.4056 52.575 24.8799 52.6078 25.3815C53.149 24.8093 53.6656 24.2802 54.1577 23.7942C54.6497 23.3082 55.1335 22.8419 55.6092 22.3951C56.0848 21.9404 56.5522 21.4976 57.0115 21.0664C57.4789 20.6353 57.9504 20.1924 58.4261 19.7378C58.5409 19.6281 58.6598 19.5026 58.7828 19.3616C58.9058 19.2205 59.037 19.0911 59.1764 18.9735C59.3158 18.8481 59.4593 18.7423 59.607 18.6561C59.7628 18.5699 59.9309 18.5267 60.1113 18.5267C60.3655 18.5267 60.5746 18.5463 60.7386 18.5855C60.9026 18.6247 61.0297 18.6914 61.12 18.7854C61.2184 18.8716 61.284 18.9814 61.3168 19.1146C61.3578 19.2479 61.3783 19.4086 61.3783 19.5967C61.3783 19.7613 61.3537 19.8985 61.3045 20.0082C61.2553 20.118 61.1897 20.216 61.1077 20.3022C61.0338 20.3806 60.9395 20.455 60.8247 20.5256C60.7181 20.5883 60.6033 20.6588 60.4803 20.7372C60.3901 20.7999 60.2753 20.8861 60.1359 20.9959C59.9965 21.0978 59.8448 21.2154 59.6808 21.3486C59.5249 21.474 59.3609 21.6112 59.1887 21.7601C59.0165 21.9091 58.8484 22.0541 58.6844 22.1952C58.2908 22.5322 57.8766 22.9006 57.442 23.3004L59.447 27.5097C59.6193 27.8624 59.7792 28.1721 59.9268 28.4386C60.0826 28.7051 60.2384 28.9716 60.3942 29.2381C60.55 29.4968 60.7099 29.775 60.8739 30.0729C61.0379 30.3629 61.2143 30.7157 61.4029 31.1311C61.4603 31.2879 61.5095 31.4368 61.5505 31.5779C61.5915 31.7033 61.6243 31.8287 61.6489 31.9541C61.6817 32.0717 61.6981 32.1697 61.6981 32.2481C61.6981 32.4519 61.6653 32.6557 61.5997 32.8595C61.5341 33.0711 61.4398 33.2593 61.3168 33.4239C61.202 33.5963 61.0625 33.7335 60.8985 33.8354C60.7427 33.9451 60.5705 34 60.3819 34C60.1441 34 59.9555 33.9099 59.8161 33.7296C59.6849 33.5493 59.5741 33.3337 59.4839 33.0829C59.4019 32.8399 59.3322 32.5851 59.2748 32.3186C59.2174 32.0521 59.1477 31.8326 59.0657 31.6602L55.806 24.7937L55.0064 25.7578C54.8178 25.9851 54.6251 26.2203 54.4283 26.4633C54.2397 26.6984 54.0429 26.9257 53.8379 27.1452C53.6328 27.3568 53.4237 27.5489 53.2105 27.7213C52.9973 27.8859 52.7759 28.0035 52.5463 28.0741L52.6078 31.4133C52.6078 31.5544 52.5832 31.6994 52.534 31.8483C52.4848 31.9894 52.4069 32.1227 52.3003 32.2481C52.1936 32.3657 52.0624 32.4636 51.9066 32.542C51.7508 32.6204 51.5663 32.6596 51.3531 32.6596C51.1153 32.6596 50.9103 32.6126 50.7381 32.5185C50.574 32.4245 50.4346 32.3147 50.3198 32.1893C50.2132 32.056 50.1312 31.9228 50.0738 31.7895C50.0246 31.6484 50 31.5348 50 31.4486Z" fill="#FFFFFC"/>
<path d="M64.6995 27.2393C64.6995 26.6279 64.7897 25.9929 64.9701 25.3345C65.1587 24.6682 65.4252 24.049 65.7697 23.4768C66.0977 22.9046 66.4995 22.3676 66.9752 21.866C67.459 21.3643 67.9961 20.9293 68.5866 20.5608C69.177 20.1846 69.8125 19.8907 70.4932 19.679C71.182 19.4595 71.8996 19.3498 72.6458 19.3498C73.2117 19.3498 73.757 19.4243 74.2818 19.5732C74.8067 19.7143 75.2987 19.9102 75.7579 20.1611C76.2172 20.4119 76.6354 20.7098 77.0126 21.0547C77.3981 21.3996 77.7261 21.7719 77.9967 22.1717C78.2673 22.5636 78.4764 22.9751 78.624 23.4062C78.7717 23.8373 78.8455 24.2685 78.8455 24.6996C78.8455 25.0837 78.8209 25.4247 78.7717 25.7225C78.7306 26.0125 78.6773 26.3026 78.6117 26.5926C78.5625 26.8905 78.5133 27.2001 78.4641 27.5215C78.4149 27.835 78.3903 28.2034 78.3903 28.6267C78.3903 28.9951 78.419 29.3008 78.4764 29.5438C78.5338 29.779 78.6158 29.971 78.7224 30.1199C78.8291 30.2689 78.9562 30.3747 79.1038 30.4374C79.2596 30.4923 79.4318 30.5197 79.6204 30.5197C79.6696 30.5197 79.7311 30.5079 79.8049 30.4844C79.8787 30.4531 79.9484 30.4217 80.014 30.3904C80.0796 30.3512 80.137 30.3159 80.1862 30.2845C80.2354 30.2453 80.2683 30.214 80.2847 30.1905C80.3749 30.1043 80.461 30.0298 80.543 29.9671C80.6332 29.8965 80.7521 29.8613 80.8997 29.8613C81.1949 29.8613 81.4163 29.9279 81.5639 30.0611C81.7197 30.1944 81.7977 30.4139 81.7977 30.7196C81.7977 30.9077 81.7362 31.1037 81.6131 31.3075C81.4983 31.5113 81.3343 31.6994 81.1211 31.8718C80.9079 32.0364 80.6537 32.1736 80.3585 32.2834C80.0632 32.3931 79.7352 32.448 79.3744 32.448C78.6527 32.448 78.0336 32.2559 77.517 31.8718C77.0085 31.4799 76.6436 30.9469 76.4222 30.2728C76.1188 30.5785 75.7866 30.8724 75.4258 31.1546C75.065 31.429 74.6673 31.672 74.2326 31.8836C73.798 32.0874 73.3142 32.2481 72.7811 32.3657C72.2563 32.4911 71.6741 32.5538 71.0344 32.5538C70.5506 32.5538 70.0545 32.4911 69.546 32.3657C69.0458 32.2402 68.5579 32.0639 68.0822 31.8366C67.6148 31.6092 67.1761 31.3349 66.766 31.0135C66.356 30.6843 65.9952 30.3237 65.6836 29.9318C65.3801 29.5399 65.1382 29.1166 64.9578 28.662C64.7856 28.2073 64.6995 27.7331 64.6995 27.2393ZM66.9998 27.2158C66.9998 27.7017 67.1351 28.1485 67.4057 28.5561C67.6845 28.9637 68.0412 29.3126 68.4759 29.6026C68.9105 29.8926 69.3943 30.1199 69.9274 30.2845C70.4686 30.4413 70.9975 30.5197 71.5142 30.5197C72.203 30.5197 72.8344 30.3943 73.4085 30.1434C73.9907 29.8926 74.4869 29.5673 74.8969 29.1675C75.3151 28.7678 75.639 28.321 75.8687 27.8272C76.0983 27.3255 76.2131 26.8317 76.2131 26.3457C76.2131 26.0713 76.2746 25.8323 76.3976 25.6285C76.5288 25.4168 76.6518 25.2169 76.7666 25.0288C76.7994 24.9896 76.8158 24.9308 76.8158 24.8524C76.824 24.7662 76.824 24.68 76.8158 24.5938C76.8158 24.4997 76.8117 24.4135 76.8035 24.3351C76.7953 24.2567 76.7912 24.2018 76.7912 24.1705C76.7912 23.998 76.7297 23.8099 76.6067 23.6061C76.4837 23.4023 76.3156 23.1985 76.1024 22.9947C75.8974 22.7909 75.6595 22.5949 75.3889 22.4068C75.1265 22.2109 74.8559 22.0384 74.5771 21.8895C74.2982 21.7405 74.0194 21.623 73.7406 21.5367C73.4618 21.4427 73.2117 21.3956 72.9903 21.3956C72.367 21.3956 71.7848 21.478 71.2435 21.6426C70.7105 21.8072 70.2226 22.0306 69.7797 22.3128C69.3369 22.5949 68.9392 22.9281 68.5866 23.3122C68.2421 23.6884 67.951 24.0921 67.7132 24.5232C67.4836 24.9543 67.3073 25.4011 67.1843 25.8636C67.0613 26.3261 66.9998 26.7768 66.9998 27.2158Z" fill="#FFFFFC"/>
<path d="M84.1225 31.4486C84.1225 31.1507 84.1389 30.8293 84.1717 30.4844C84.2045 30.1317 84.2373 29.7829 84.2701 29.438C84.3111 29.0852 84.348 28.7482 84.3808 28.4268C84.4136 28.0976 84.43 27.8036 84.43 27.545L84.6268 15.8107C84.6268 15.6383 84.6637 15.4854 84.7376 15.3521C84.8114 15.2189 84.9057 15.1092 85.0205 15.0229C85.1353 14.9289 85.2624 14.8583 85.4018 14.8113C85.5412 14.7643 85.6847 14.7407 85.8323 14.7407C85.9389 14.7407 86.0578 14.7643 86.1891 14.8113C86.3203 14.8505 86.4433 14.9171 86.5581 15.0112C86.6729 15.0974 86.7672 15.2111 86.841 15.3521C86.9148 15.4932 86.9517 15.6618 86.9517 15.8577C86.9517 16.4456 86.9353 17.0257 86.9025 17.5979C86.8779 18.1701 86.8451 18.7384 86.8041 19.3028C86.7713 19.8593 86.7385 20.4119 86.7057 20.9606C86.6811 21.5093 86.6688 22.0541 86.6688 22.5949C86.6688 23.0496 86.6688 23.5042 86.6688 23.9588C86.677 24.4056 86.6975 24.8799 86.7303 25.3815C87.2715 24.8093 87.7882 24.2802 88.2802 23.7942C88.7722 23.3082 89.2561 22.8419 89.7317 22.3951C90.2073 21.9404 90.6748 21.4976 91.134 21.0664C91.6014 20.6353 92.073 20.1924 92.5486 19.7378C92.6634 19.6281 92.7823 19.5026 92.9053 19.3616C93.0283 19.2205 93.1595 19.0911 93.2989 18.9735C93.4383 18.8481 93.5819 18.7423 93.7295 18.6561C93.8853 18.5699 94.0534 18.5267 94.2338 18.5267C94.488 18.5267 94.6971 18.5463 94.8611 18.5855C95.0252 18.6247 95.1523 18.6914 95.2425 18.7854C95.3409 18.8716 95.4065 18.9814 95.4393 19.1146C95.4803 19.2479 95.5008 19.4086 95.5008 19.5967C95.5008 19.7613 95.4762 19.8985 95.427 20.0082C95.3778 20.118 95.3122 20.216 95.2302 20.3022C95.1564 20.3806 95.0621 20.455 94.9472 20.5256C94.8406 20.5883 94.7258 20.6588 94.6028 20.7372C94.5126 20.7999 94.3978 20.8861 94.2584 20.9959C94.119 21.0978 93.9673 21.2154 93.8033 21.3486C93.6475 21.474 93.4834 21.6112 93.3112 21.7601C93.139 21.9091 92.9709 22.0541 92.8069 22.1952C92.4133 22.5322 91.9991 22.9006 91.5645 23.3004L93.5696 27.5097C93.7418 27.8624 93.9017 28.1721 94.0493 28.4386C94.2051 28.7051 94.3609 28.9716 94.5167 29.2381C94.6725 29.4968 94.8324 29.775 94.9964 30.0729C95.1605 30.3629 95.3368 30.7157 95.5254 31.1311C95.5828 31.2879 95.632 31.4368 95.673 31.5779C95.714 31.7033 95.7468 31.8287 95.7714 31.9541C95.8042 32.0717 95.8206 32.1697 95.8206 32.2481C95.8206 32.4519 95.7878 32.6557 95.7222 32.8595C95.6566 33.0711 95.5623 33.2593 95.4393 33.4239C95.3245 33.5963 95.1851 33.7335 95.021 33.8354C94.8652 33.9451 94.693 34 94.5044 34C94.2666 34 94.078 33.9099 93.9386 33.7296C93.8074 33.5493 93.6967 33.3337 93.6065 33.0829C93.5244 32.8399 93.4547 32.5851 93.3973 32.3186C93.3399 32.0521 93.2702 31.8326 93.1882 31.6602L89.9285 24.7937L89.129 25.7578C88.9403 25.9851 88.7476 26.2203 88.5508 26.4633C88.3622 26.6984 88.1654 26.9257 87.9604 27.1452C87.7554 27.3568 87.5462 27.5489 87.333 27.7213C87.1198 27.8859 86.8984 28.0035 86.6688 28.0741L86.7303 31.4133C86.7303 31.5544 86.7057 31.6994 86.6565 31.8483C86.6073 31.9894 86.5294 32.1227 86.4228 32.2481C86.3162 32.3657 86.185 32.4636 86.0291 32.542C85.8733 32.6204 85.6888 32.6596 85.4756 32.6596C85.2378 32.6596 85.0328 32.6126 84.8606 32.5185C84.6966 32.4245 84.5571 32.3147 84.4423 32.1893C84.3357 32.056 84.2537 31.9228 84.1963 31.7895C84.1471 31.6484 84.1225 31.5348 84.1225 31.4486Z" fill="#FFFFFC"/>
<path d="M101.762 16.8219C101.622 16.8219 101.422 16.7905 101.159 16.7278C100.905 16.6573 100.651 16.5554 100.397 16.4221C100.15 16.2888 99.9332 16.1203 99.7446 15.9165C99.5642 15.7127 99.474 15.4736 99.474 15.1993C99.474 15.066 99.5027 14.9289 99.5601 14.7878C99.6175 14.6467 99.6954 14.5173 99.7938 14.3998C99.9004 14.2822 100.027 14.1881 100.175 14.1176C100.323 14.0392 100.487 14 100.667 14C100.823 14 101.016 14.0588 101.245 14.1764C101.483 14.2939 101.709 14.4468 101.922 14.6349C102.135 14.8152 102.32 15.019 102.475 15.2463C102.631 15.4658 102.709 15.6814 102.709 15.893C102.709 15.9479 102.689 16.0263 102.648 16.1282C102.615 16.2301 102.557 16.332 102.475 16.4339C102.402 16.5358 102.303 16.6259 102.18 16.7043C102.065 16.7827 101.926 16.8219 101.762 16.8219ZM100.052 31.4133C100.036 31.3506 100.015 31.2291 99.9906 31.0488C99.9742 30.8685 99.9537 30.5706 99.9291 30.1552C99.9127 29.7398 99.8963 29.1793 99.8799 28.4738C99.8717 27.7605 99.8676 26.8434 99.8676 25.7225C99.8676 24.8446 99.9209 23.9471 100.027 23.03C100.142 22.105 100.282 21.231 100.446 20.408C100.454 20.3374 100.483 20.2434 100.532 20.1258C100.589 20.0004 100.663 19.8789 100.753 19.7613C100.852 19.6359 100.966 19.5301 101.098 19.4439C101.229 19.3498 101.381 19.3028 101.553 19.3028C101.733 19.3028 101.881 19.3341 101.996 19.3968C102.11 19.4517 102.197 19.534 102.254 19.6437C102.32 19.7456 102.365 19.8671 102.389 20.0082C102.414 20.1415 102.426 20.2826 102.426 20.4315C102.426 20.847 102.41 21.3055 102.377 21.8072C102.344 22.301 102.307 22.8066 102.266 23.3239C102.233 23.8334 102.201 24.3351 102.168 24.8289C102.143 25.3228 102.131 25.7695 102.131 26.1693C102.131 26.522 102.156 26.9218 102.205 27.3686C102.262 27.8154 102.324 28.274 102.389 28.7443C102.463 29.2146 102.525 29.6771 102.574 30.1317C102.631 30.5785 102.66 30.9861 102.66 31.3545C102.66 31.7386 102.557 32.0364 102.352 32.2481C102.147 32.4519 101.918 32.5538 101.664 32.5538C101.171 32.5538 100.802 32.4676 100.556 32.2951C100.31 32.1305 100.142 31.8366 100.052 31.4133Z" fill="#FFFFFC"/>
<path d="M107.125 31.4486C107.125 31.1507 107.141 30.8293 107.174 30.4844C107.207 30.1317 107.24 29.7829 107.273 29.438C107.314 29.0852 107.351 28.7482 107.383 28.4268C107.416 28.0976 107.433 27.8036 107.433 27.545L107.629 15.8107C107.629 15.6383 107.666 15.4854 107.74 15.3521C107.814 15.2189 107.908 15.1092 108.023 15.0229C108.138 14.9289 108.265 14.8583 108.404 14.8113C108.544 14.7643 108.687 14.7407 108.835 14.7407C108.941 14.7407 109.06 14.7643 109.192 14.8113C109.323 14.8505 109.446 14.9171 109.561 15.0112C109.675 15.0974 109.77 15.2111 109.844 15.3521C109.917 15.4932 109.954 15.6618 109.954 15.8577C109.954 16.4456 109.938 17.0257 109.905 17.5979C109.88 18.1701 109.848 18.7384 109.807 19.3028C109.774 19.8593 109.741 20.4119 109.708 20.9606C109.684 21.5093 109.671 22.0541 109.671 22.5949C109.671 23.0496 109.671 23.5042 109.671 23.9588C109.68 24.4056 109.7 24.8799 109.733 25.3815C110.274 24.8093 110.791 24.2802 111.283 23.7942C111.775 23.3082 112.259 22.8419 112.734 22.3951C113.21 21.9404 113.677 21.4976 114.137 21.0664C114.604 20.6353 115.076 20.1924 115.551 19.7378C115.666 19.6281 115.785 19.5026 115.908 19.3616C116.031 19.2205 116.162 19.0911 116.301 18.9735C116.441 18.8481 116.584 18.7423 116.732 18.6561C116.888 18.5699 117.056 18.5267 117.236 18.5267C117.491 18.5267 117.7 18.5463 117.864 18.5855C118.028 18.6247 118.155 18.6914 118.245 18.7854C118.343 18.8716 118.409 18.9814 118.442 19.1146C118.483 19.2479 118.503 19.4086 118.503 19.5967C118.503 19.7613 118.479 19.8985 118.43 20.0082C118.38 20.118 118.315 20.216 118.233 20.3022C118.159 20.3806 118.065 20.455 117.95 20.5256C117.843 20.5883 117.728 20.6588 117.605 20.7372C117.515 20.7999 117.4 20.8861 117.261 20.9959C117.122 21.0978 116.97 21.2154 116.806 21.3486C116.65 21.474 116.486 21.6112 116.314 21.7601C116.142 21.9091 115.973 22.0541 115.809 22.1952C115.416 22.5322 115.002 22.9006 114.567 23.3004L116.572 27.5097C116.744 27.8624 116.904 28.1721 117.052 28.4386C117.208 28.7051 117.363 28.9716 117.519 29.2381C117.675 29.4968 117.835 29.775 117.999 30.0729C118.163 30.3629 118.339 30.7157 118.528 31.1311C118.585 31.2879 118.635 31.4368 118.676 31.5779C118.717 31.7033 118.749 31.8287 118.774 31.9541C118.807 32.0717 118.823 32.1697 118.823 32.2481C118.823 32.4519 118.79 32.6557 118.725 32.8595C118.659 33.0711 118.565 33.2593 118.442 33.4239C118.327 33.5963 118.188 33.7335 118.024 33.8354C117.868 33.9451 117.696 34 117.507 34C117.269 34 117.081 33.9099 116.941 33.7296C116.81 33.5493 116.699 33.3337 116.609 33.0829C116.527 32.8399 116.457 32.5851 116.4 32.3186C116.342 32.0521 116.273 31.8326 116.191 31.6602L112.931 24.7937L112.132 25.7578C111.943 25.9851 111.75 26.2203 111.553 26.4633C111.365 26.6984 111.168 26.9257 110.963 27.1452C110.758 27.3568 110.549 27.5489 110.336 27.7213C110.122 27.8859 109.901 28.0035 109.671 28.0741L109.733 31.4133C109.733 31.5544 109.708 31.6994 109.659 31.8483C109.61 31.9894 109.532 32.1227 109.425 32.2481C109.319 32.3657 109.188 32.4636 109.032 32.542C108.876 32.6204 108.691 32.6596 108.478 32.6596C108.24 32.6596 108.035 32.6126 107.863 32.5185C107.699 32.4245 107.56 32.3147 107.445 32.1893C107.338 32.056 107.256 31.9228 107.199 31.7895C107.15 31.6484 107.125 31.5348 107.125 31.4486Z" fill="#FFFFFC"/>
<path d="M122.071 25.4638C122.071 25.2208 122.079 24.9465 122.095 24.6408C122.112 24.3351 122.136 24.0176 122.169 23.6884C122.202 23.3592 122.239 23.0261 122.28 22.689C122.329 22.3441 122.382 22.0149 122.44 21.7014C122.497 21.38 122.559 21.086 122.624 20.8195C122.698 20.5452 122.772 20.31 122.846 20.1141C122.936 19.9024 123.079 19.73 123.276 19.5967C123.473 19.4556 123.735 19.3851 124.063 19.3851C124.359 19.3851 124.592 19.487 124.764 19.6908C124.945 19.8946 125.035 20.1376 125.035 20.4198C125.035 20.4668 124.994 20.6157 124.912 20.8665C124.838 21.1095 124.752 21.4388 124.654 21.8542C124.564 22.2618 124.477 22.7478 124.395 23.3122C124.322 23.8687 124.285 24.4801 124.285 25.1464C124.285 25.4051 124.297 25.7225 124.322 26.0988C124.354 26.475 124.412 26.8709 124.494 27.2863C124.576 27.6939 124.691 28.1054 124.838 28.5209C124.986 28.9285 125.183 29.2969 125.429 29.6261C125.683 29.9553 125.99 30.2218 126.351 30.4256C126.712 30.6294 127.143 30.7313 127.643 30.7313C128.069 30.7313 128.463 30.6686 128.824 30.5432C129.185 30.4178 129.513 30.2571 129.808 30.0611C130.111 29.8573 130.382 29.63 130.62 29.3792C130.866 29.1284 131.083 28.8775 131.272 28.6267C131.468 28.3759 131.637 28.1407 131.776 27.9212C131.924 27.7017 132.051 27.5175 132.157 27.3686C132.206 26.914 132.243 26.5142 132.268 26.1693C132.293 25.8166 132.309 25.4952 132.317 25.2052C132.334 24.9151 132.342 24.6447 132.342 24.3939C132.35 24.1352 132.354 23.8726 132.354 23.6061C132.354 23.3318 132.35 23.0417 132.342 22.736C132.342 22.4225 132.342 22.0658 132.342 21.6661V20.2669C132.342 20.1023 132.379 19.9651 132.452 19.8554C132.534 19.7456 132.633 19.6555 132.748 19.5849C132.863 19.5144 132.99 19.4674 133.129 19.4439C133.268 19.4125 133.396 19.3968 133.51 19.3968C133.609 19.3968 133.715 19.4125 133.83 19.4439C133.945 19.4752 134.052 19.5222 134.15 19.5849C134.248 19.6477 134.33 19.7339 134.396 19.8436C134.462 19.9455 134.494 20.067 134.494 20.2081L134.47 31.3663C134.47 31.766 134.388 32.0364 134.224 32.1775C134.06 32.3108 133.81 32.3774 133.473 32.3774C133.17 32.3774 132.932 32.3539 132.76 32.3069C132.596 32.2677 132.473 32.1893 132.391 32.0717C132.317 31.9541 132.272 31.7935 132.256 31.5897C132.239 31.3859 132.231 31.1233 132.231 30.8019V30.0024C132.018 30.3708 131.776 30.7235 131.505 31.0606C131.243 31.3898 130.935 31.6798 130.583 31.9306C130.23 32.1815 129.824 32.3813 129.365 32.5303C128.906 32.6792 128.381 32.7537 127.79 32.7537C126.938 32.7537 126.204 32.6283 125.589 32.3774C124.982 32.1344 124.465 31.8131 124.039 31.4133C123.62 31.0057 123.28 30.5432 123.018 30.0259C122.764 29.5085 122.563 28.9794 122.415 28.4386C122.276 27.8977 122.181 27.3686 122.132 26.8513C122.091 26.3339 122.071 25.8714 122.071 25.4638Z" fill="#FFFFFC"/>
<path d="M138.861 31.4486C138.861 31.1507 138.878 30.8293 138.91 30.4844C138.943 30.1317 138.976 29.7829 139.009 29.438C139.05 29.0852 139.087 28.7482 139.12 28.4268C139.152 28.0976 139.169 27.8036 139.169 27.545L139.366 15.8107C139.366 15.6383 139.402 15.4854 139.476 15.3521C139.55 15.2189 139.644 15.1092 139.759 15.0229C139.874 14.9289 140.001 14.8583 140.141 14.8113C140.28 14.7643 140.423 14.7407 140.571 14.7407C140.678 14.7407 140.797 14.7643 140.928 14.8113C141.059 14.8505 141.182 14.9171 141.297 15.0112C141.412 15.0974 141.506 15.2111 141.58 15.3521C141.654 15.4932 141.69 15.6618 141.69 15.8577C141.69 16.4456 141.674 17.0257 141.641 17.5979C141.617 18.1701 141.584 18.7384 141.543 19.3028C141.51 19.8593 141.477 20.4119 141.444 20.9606C141.42 21.5093 141.407 22.0541 141.407 22.5949C141.407 23.0496 141.407 23.5042 141.407 23.9588C141.416 24.4056 141.436 24.8799 141.469 25.3815C142.01 24.8093 142.527 24.2802 143.019 23.7942C143.511 23.3082 143.995 22.8419 144.47 22.3951C144.946 21.9404 145.413 21.4976 145.873 21.0664C146.34 20.6353 146.812 20.1924 147.287 19.7378C147.402 19.6281 147.521 19.5026 147.644 19.3616C147.767 19.2205 147.898 19.0911 148.038 18.9735C148.177 18.8481 148.321 18.7423 148.468 18.6561C148.624 18.5699 148.792 18.5267 148.973 18.5267C149.227 18.5267 149.436 18.5463 149.6 18.5855C149.764 18.6247 149.891 18.6914 149.981 18.7854C150.08 18.8716 150.145 18.9814 150.178 19.1146C150.219 19.2479 150.239 19.4086 150.239 19.5967C150.239 19.7613 150.215 19.8985 150.166 20.0082C150.116 20.118 150.051 20.216 149.969 20.3022C149.895 20.3806 149.801 20.455 149.686 20.5256C149.579 20.5883 149.465 20.6588 149.342 20.7372C149.251 20.7999 149.137 20.8861 148.997 20.9959C148.858 21.0978 148.706 21.2154 148.542 21.3486C148.386 21.474 148.222 21.6112 148.05 21.7601C147.878 21.9091 147.71 22.0541 147.546 22.1952C147.152 22.5322 146.738 22.9006 146.303 23.3004L148.308 27.5097C148.48 27.8624 148.64 28.1721 148.788 28.4386C148.944 28.7051 149.1 28.9716 149.255 29.2381C149.411 29.4968 149.571 29.775 149.735 30.0729C149.899 30.3629 150.075 30.7157 150.264 31.1311C150.322 31.2879 150.371 31.4368 150.412 31.5779C150.453 31.7033 150.486 31.8287 150.51 31.9541C150.543 32.0717 150.559 32.1697 150.559 32.2481C150.559 32.4519 150.527 32.6557 150.461 32.8595C150.395 33.0711 150.301 33.2593 150.178 33.4239C150.063 33.5963 149.924 33.7335 149.76 33.8354C149.604 33.9451 149.432 34 149.243 34C149.005 34 148.817 33.9099 148.677 33.7296C148.546 33.5493 148.435 33.3337 148.345 33.0829C148.263 32.8399 148.193 32.5851 148.136 32.3186C148.079 32.0521 148.009 31.8326 147.927 31.6602L144.667 24.7937L143.868 25.7578C143.679 25.9851 143.486 26.2203 143.29 26.4633C143.101 26.6984 142.904 26.9257 142.699 27.1452C142.494 27.3568 142.285 27.5489 142.072 27.7213C141.859 27.8859 141.637 28.0035 141.407 28.0741L141.469 31.4133C141.469 31.5544 141.444 31.6994 141.395 31.8483C141.346 31.9894 141.268 32.1227 141.161 32.2481C141.055 32.3657 140.924 32.4636 140.768 32.542C140.612 32.6204 140.428 32.6596 140.214 32.6596C139.977 32.6596 139.771 32.6126 139.599 32.5185C139.435 32.4245 139.296 32.3147 139.181 32.1893C139.074 32.056 138.992 31.9228 138.935 31.7895C138.886 31.6484 138.861 31.5348 138.861 31.4486Z" fill="#FFFFFC"/>
<path d="M153.241 26.6631C153.241 25.5501 153.409 24.5428 153.745 23.6414C154.081 22.74 154.578 21.9718 155.234 21.3369C155.89 20.7019 156.693 20.212 157.645 19.8671C158.604 19.5222 159.707 19.3498 160.954 19.3498C161.38 19.3498 161.815 19.3929 162.257 19.4791C162.708 19.5654 163.143 19.6908 163.561 19.8554C163.98 20.02 164.373 20.2238 164.742 20.4668C165.119 20.7098 165.447 20.992 165.726 21.3133C166.005 21.6269 166.222 21.9796 166.378 22.3715C166.542 22.7556 166.624 23.175 166.624 23.6296C166.624 23.9824 166.542 24.2371 166.378 24.3939C166.214 24.5507 165.997 24.6604 165.726 24.7231C165.488 24.7858 165.21 24.8446 164.89 24.8995C164.578 24.9465 164.226 25.0288 163.832 25.1464L155.603 27.592C155.709 28.0702 155.881 28.4778 156.119 28.8148C156.365 29.1519 156.648 29.4341 156.968 29.6614C157.296 29.8887 157.649 30.069 158.026 30.2022C158.411 30.3355 158.797 30.4374 159.182 30.5079C159.568 30.5706 159.941 30.6138 160.302 30.6373C160.671 30.6529 161.003 30.6608 161.298 30.6608C161.765 30.6608 162.229 30.6098 162.688 30.5079C163.147 30.406 163.569 30.2924 163.955 30.167C164.34 30.0415 164.677 29.9279 164.964 29.826C165.259 29.7241 165.472 29.6731 165.603 29.6731C166.038 29.6731 166.354 29.7672 166.55 29.9553C166.755 30.1434 166.858 30.4374 166.858 30.8372C166.858 31.0958 166.719 31.3192 166.44 31.5073C166.169 31.6955 165.816 31.8522 165.382 31.9777C164.947 32.1031 164.463 32.2011 163.93 32.2716C163.405 32.35 162.889 32.4049 162.38 32.4362C161.88 32.4754 161.421 32.4989 161.003 32.5068C160.584 32.5224 160.269 32.5303 160.056 32.5303C159.49 32.5303 158.924 32.4597 158.358 32.3186C157.8 32.1854 157.267 31.9933 156.759 31.7425C156.259 31.4917 155.791 31.1899 155.357 30.8372C154.93 30.4766 154.557 30.0807 154.237 29.6496C153.926 29.2107 153.68 28.7403 153.499 28.2387C153.327 27.737 153.241 27.2118 153.241 26.6631ZM155.541 25.746C155.927 25.6363 156.369 25.5109 156.87 25.3698C157.37 25.2287 157.895 25.0798 158.444 24.923C159.002 24.7584 159.564 24.5898 160.129 24.4174C160.703 24.245 161.253 24.0764 161.778 23.9118C162.311 23.7394 162.799 23.5787 163.241 23.4297C163.693 23.273 164.07 23.128 164.373 22.9947C164.283 22.6968 164.131 22.4421 163.918 22.2305C163.705 22.011 163.434 21.8346 163.106 21.7014C162.786 21.5603 162.413 21.4584 161.987 21.3956C161.56 21.3251 161.093 21.2898 160.584 21.2898C160.355 21.2898 160.08 21.3212 159.76 21.3839C159.449 21.4466 159.117 21.5485 158.764 21.6896C158.42 21.8228 158.067 22.0031 157.706 22.2305C157.353 22.4578 157.03 22.736 156.734 23.0653C156.439 23.3945 156.185 23.7825 155.972 24.2293C155.758 24.6682 155.615 25.1738 155.541 25.746Z" fill="#FFFFFC"/>
<path d="M170.597 31.4486C170.597 31.1507 170.614 30.8293 170.647 30.4844C170.679 30.1317 170.712 29.7829 170.745 29.438C170.786 29.0852 170.823 28.7482 170.856 28.4268C170.888 28.0976 170.905 27.8036 170.905 27.545L171.102 15.8107C171.102 15.6383 171.139 15.4854 171.212 15.3521C171.286 15.2189 171.381 15.1092 171.495 15.0229C171.61 14.9289 171.737 14.8583 171.877 14.8113C172.016 14.7643 172.16 14.7407 172.307 14.7407C172.414 14.7407 172.533 14.7643 172.664 14.8113C172.795 14.8505 172.918 14.9171 173.033 15.0112C173.148 15.0974 173.242 15.2111 173.316 15.3521C173.39 15.4932 173.427 15.6618 173.427 15.8577C173.427 16.4456 173.41 17.0257 173.377 17.5979C173.353 18.1701 173.32 18.7384 173.279 19.3028C173.246 19.8593 173.213 20.4119 173.181 20.9606C173.156 21.5093 173.144 22.0541 173.144 22.5949C173.144 23.0496 173.144 23.5042 173.144 23.9588C173.152 24.4056 173.172 24.8799 173.205 25.3815C173.746 24.8093 174.263 24.2802 174.755 23.7942C175.247 23.3082 175.731 22.8419 176.207 22.3951C176.682 21.9404 177.15 21.4976 177.609 21.0664C178.076 20.6353 178.548 20.1924 179.023 19.7378C179.138 19.6281 179.257 19.5026 179.38 19.3616C179.503 19.2205 179.634 19.0911 179.774 18.9735C179.913 18.8481 180.057 18.7423 180.204 18.6561C180.36 18.5699 180.528 18.5267 180.709 18.5267C180.963 18.5267 181.172 18.5463 181.336 18.5855C181.5 18.6247 181.627 18.6914 181.717 18.7854C181.816 18.8716 181.881 18.9814 181.914 19.1146C181.955 19.2479 181.976 19.4086 181.976 19.5967C181.976 19.7613 181.951 19.8985 181.902 20.0082C181.853 20.118 181.787 20.216 181.705 20.3022C181.631 20.3806 181.537 20.455 181.422 20.5256C181.316 20.5883 181.201 20.6588 181.078 20.7372C180.987 20.7999 180.873 20.8861 180.733 20.9959C180.594 21.0978 180.442 21.2154 180.278 21.3486C180.122 21.474 179.958 21.6112 179.786 21.7601C179.614 21.9091 179.446 22.0541 179.282 22.1952C178.888 22.5322 178.474 22.9006 178.039 23.3004L180.044 27.5097C180.217 27.8624 180.377 28.1721 180.524 28.4386C180.68 28.7051 180.836 28.9716 180.992 29.2381C181.147 29.4968 181.307 29.775 181.471 30.0729C181.635 30.3629 181.812 30.7157 182 31.1311C182.058 31.2879 182.107 31.4368 182.148 31.5779C182.189 31.7033 182.222 31.8287 182.246 31.9541C182.279 32.0717 182.295 32.1697 182.295 32.2481C182.295 32.4519 182.263 32.6557 182.197 32.8595C182.131 33.0711 182.037 33.2593 181.914 33.4239C181.799 33.5963 181.66 33.7335 181.496 33.8354C181.34 33.9451 181.168 34 180.979 34C180.741 34 180.553 33.9099 180.413 33.7296C180.282 33.5493 180.172 33.3337 180.081 33.0829C179.999 32.8399 179.93 32.5851 179.872 32.3186C179.815 32.0521 179.745 31.8326 179.663 31.6602L176.403 24.7937L175.604 25.7578C175.415 25.9851 175.222 26.2203 175.026 26.4633C174.837 26.6984 174.64 26.9257 174.435 27.1452C174.23 27.3568 174.021 27.5489 173.808 27.7213C173.595 27.8859 173.373 28.0035 173.144 28.0741L173.205 31.4133C173.205 31.5544 173.181 31.6994 173.131 31.8483C173.082 31.9894 173.004 32.1227 172.898 32.2481C172.791 32.3657 172.66 32.4636 172.504 32.542C172.348 32.6204 172.164 32.6596 171.95 32.6596C171.713 32.6596 171.508 32.6126 171.335 32.5185C171.171 32.4245 171.032 32.3147 170.917 32.1893C170.811 32.056 170.729 31.9228 170.671 31.7895C170.622 31.6484 170.597 31.5348 170.597 31.4486Z" fill="#FFFFFC"/>
<path d="M185.297 25.9929C185.297 24.778 185.502 23.7472 185.912 22.9006C186.322 22.0541 186.859 21.3682 187.523 20.843C188.196 20.31 188.954 19.9259 189.799 19.6908C190.652 19.4478 191.521 19.3263 192.407 19.3263C193.432 19.3263 194.35 19.487 195.162 19.8083C195.982 20.1297 196.675 20.5922 197.241 21.1958C197.807 21.7993 198.241 22.5322 198.545 23.3945C198.848 24.2489 199 25.2091 199 26.2751C199 26.8944 198.914 27.4783 198.742 28.027C198.569 28.5757 198.332 29.0852 198.028 29.5556C197.725 30.018 197.36 30.4335 196.933 30.8019C196.515 31.1703 196.056 31.4878 195.556 31.7543C195.056 32.0129 194.527 32.2089 193.969 32.3422C193.411 32.4832 192.845 32.5538 192.271 32.5538C191.648 32.5538 191.041 32.4597 190.451 32.2716C189.869 32.0913 189.319 31.8405 188.803 31.5191C188.286 31.1977 187.81 30.8254 187.376 30.4021C186.949 29.971 186.58 29.5124 186.269 29.0265C185.965 28.5405 185.727 28.0388 185.555 27.5215C185.383 27.0041 185.297 26.4946 185.297 25.9929ZM187.425 25.699C187.425 26.2791 187.556 26.863 187.819 27.4509C188.081 28.031 188.425 28.5561 188.852 29.0265C189.286 29.4968 189.778 29.8809 190.328 30.1787C190.886 30.4687 191.451 30.6138 192.025 30.6138C192.649 30.6138 193.251 30.5119 193.834 30.3081C194.424 30.1043 194.941 29.8064 195.384 29.4145C195.835 29.0225 196.195 28.5444 196.466 27.98C196.737 27.4156 196.872 26.7729 196.872 26.0517C196.872 25.3463 196.769 24.7035 196.564 24.1235C196.368 23.5356 196.093 23.03 195.74 22.6067C195.388 22.1834 194.965 21.8581 194.473 21.6308C193.981 21.3956 193.448 21.2781 192.874 21.2781C192.235 21.2781 191.591 21.3761 190.943 21.572C190.295 21.7601 189.709 22.0423 189.184 22.4186C188.667 22.787 188.245 23.2455 187.917 23.7942C187.589 24.3429 187.425 24.9779 187.425 25.699Z" fill="#FFFFFC"/>
</svg>
