<svg width="78" height="70" viewBox="0 0 78 70" fill="none" xmlns="http://www.w3.org/2000/svg">
<path fill-rule="evenodd" clip-rule="evenodd" d="M27.3509 0.0557503C31.2188 0.540651 33.96 4.0588 33.4734 7.91377L31.9342 20.1092C35.9965 20.9062 39.9563 22.1704 43.5828 24.2191C55.067 30.7071 60.3515 43.2317 60.3515 62.9642C60.3515 66.8496 57.1912 69.9993 53.2928 69.9993C49.3945 69.9993 46.2342 66.8496 46.2342 62.9642C46.2342 45.4111 41.6366 39.2929 36.6211 36.4595C34.8405 35.4535 32.7132 34.6843 30.1665 34.1157L26.4148 63.8422C25.9282 67.6972 22.3983 70.4292 18.5304 69.9443C14.6625 69.4594 11.9213 65.9412 12.4078 62.0862L16.107 32.7761C13.2816 32.7153 10.2742 32.7136 7.05865 32.7136C3.16027 32.7136 0 29.5639 0 25.6786C0 21.7932 3.16027 18.6436 7.05865 18.6436L7.28627 18.6436C10.8332 18.6435 14.3982 18.6435 17.8776 18.7468L19.4665 6.15778C19.953 2.30282 23.483 -0.42915 27.3509 0.0557503ZM62.5269 18.9497C66.2556 17.816 70.2006 19.9095 71.3381 23.6257L77.6909 44.3791C78.8285 48.0953 76.728 52.027 72.9992 53.1608C69.2705 54.2945 65.3256 52.201 64.188 48.4848L57.8352 27.7315C56.6977 24.0152 58.7982 20.0835 62.5269 18.9497Z" fill="#EDCA70"/>
</svg>
